{
  "source": "C:\\Users\\Peter\\Desktop\\stuff\\MIUN\\quantitative_research\\video_compression\\videos\\BVI-HD\\BVI-HD_CDVL_videos\\ORIG\\PlasmaAveragePan_1920x1080_60fps.mp4",
  "output": "C:\\Users\\Peter\\Desktop\\stuff\\MIUN\\quantitative_research\\video_compression\\compressed_videos\\BVI-HD\\h264\\1\\PlasmaAveragePan_1920x1080_60fps_h264.mp4",
  "codec": "h264",
  "ok": "Input #0, mov,mp4,m4a,3gp,3g2,mj2, from 'C:\\Users\\Peter\\Desktop\\stuff\\MIUN\\quantitative_research\\video_compression\\videos\\BVI-HD\\BVI-HD_CDVL_videos\\ORIG\\PlasmaAveragePan_1920x1080_60fps.mp4':\n  Metadata:\n    major_brand     : isom\n    minor_version   : 512\n    compatible_brands: isomiso2avc1mp41\n    encoder         : Lavf54.28.101\n  Duration: 00:00:05.00, start: 0.000000, bitrate: 73730 kb/s\n  Stream #0:0[0x1](und): Video: h264 (High 4:4:4 Predictive) (avc1 / 0x31637661), yuv420p(progressive), 1920x1080, 73727 kb/s, 60 fps, 60 tbr, 60 tbn (default)\n    Metadata:\n      handler_name    : VideoHandler\n      vendor_id       : [0][0][0][0]\n[out#0/mp4 @ 0000019c9aaea600] Codec AVOption b:a (set bitrate (in bits/s)) has not been used for any stream. The most likely reason is either wrong type (e.g. a video option with no video streams) or that it is a private option of some decoder which was not actually used for any stream.\nStream mapping:\n  Stream #0:0 -> #0:0 (h264 (native) -> h264 (libx264))\nPress [q] to stop, [?] for help\n[libx264 @ 0000019c9b3e0280] using cpu capabilities: MMX2 SSE2Fast SSSE3 SSE4.2 AVX FMA3 BMI2 AVX2\n[libx264 @ 0000019c9b3e0280] profile High, level 5.0, 4:2:0, 8-bit\n[libx264 @ 0000019c9b3e0280] 264 - core 165 r3222 b35605a - H.264/MPEG-4 AVC codec - Copyleft 2003-2025 - http://www.videolan.org/x264.html - options: cabac=1 ref=5 deblock=1:0:0 analyse=0x3:0x113 me=hex subme=8 psy=1 psy_rd=1.00:0.00 mixed_ref=1 me_range=16 chroma_me=1 trellis=2 8x8dct=1 cqm=0 deadzone=21,11 fast_pskip=1 chroma_qp_offset=-2 threads=18 lookahead_threads=3 sliced_threads=0 nr=0 decimate=1 interlaced=0 bluray_compat=0 constrained_intra=0 bframes=3 b_pyramid=2 b_adapt=1 b_bias=0 direct=3 weightb=1 open_gop=0 weightp=2 keyint=250 keyint_min=25 scenecut=40 intra_refresh=0 rc_lookahead=50 rc=cbr mbtree=1 bitrate=1000 ratetol=1.0 qcomp=0.60 qpmin=0 qpmax=69 qpstep=4 vbv_maxrate=1000 vbv_bufsize=1000 nal_hrd=none filler=0 ip_ratio=1.40 aq=1:1.00\nOutput #0, mp4, to 'C:\\Users\\Peter\\Desktop\\stuff\\MIUN\\quantitative_research\\video_compression\\compressed_videos\\BVI-HD\\h264\\1\\PlasmaAveragePan_1920x1080_60fps_h264.mp4':\n  Metadata:\n    major_brand     : isom\n    minor_version   : 512\n    compatible_brands: isomiso2avc1mp41\n    encoder         : Lavf62.3.100\n  Stream #0:0(und): Video: h264 (avc1 / 0x31637661), yuv420p(tv, progressive), 1920x1080, q=2-31, 1000 kb/s, 60 fps, 15360 tbn (default)\n    Metadata:\n      encoder         : Lavc62.11.100 libx264\n      handler_name    : VideoHandler\n      vendor_id       : [0][0][0][0]\n    Side data:\n      cpb: bitrate max/min/avg: 1000000/0/1000000 buffer size: 1000000 vbv_delay: N/A\nframe=    0 fps=0.0 q=0.0 size=       0KiB time=N/A bitrate=N/A speed=N/A elapsed=0:00:00.51    \nframe=   24 fps= 23 q=48.0 size=       0KiB time=00:00:00.30 bitrate=   1.3kbits/s speed=0.291x elapsed=0:00:01.03    \nframe=   72 fps= 45 q=48.0 size=       0KiB time=00:00:01.16 bitrate=   0.3kbits/s speed=0.735x elapsed=0:00:01.58    \nframe=  108 fps= 51 q=48.0 size=       0KiB time=00:00:01.76 bitrate=   0.2kbits/s speed=0.834x elapsed=0:00:02.11    \nframe=  143 fps= 54 q=48.0 size=     256KiB time=00:00:02.28 bitrate= 918.6kbits/s speed=0.86x elapsed=0:00:02.65    \nframe=  191 fps= 60 q=47.0 size=     256KiB time=00:00:03.08 bitrate= 680.3kbits/s speed=0.969x elapsed=0:00:03.18    \nframe=  243 fps= 65 q=47.0 size=     256KiB time=00:00:04.01 bitrate= 522.2kbits/s speed=1.07x elapsed=0:00:03.74    \n[mp4 @ 0000019c9aaea700] Starting second pass: moving the moov atom to the beginning of the file\n[out#0/mp4 @ 0000019c9aaea600] video:592KiB audio:0KiB subtitle:0KiB other streams:0KiB global headers:0KiB muxing overhead: 0.735469%\nframe=  300 fps= 73 q=-1.0 Lsize=     596KiB time=00:00:04.96 bitrate= 983.7kbits/s speed=1.21x elapsed=0:00:04.08    \n[libx264 @ 0000019c9b3e0280] frame I:3     Avg QP:32.90  size:  5698\n[libx264 @ 0000019c9b3e0280] frame P:75    Avg QP:43.39  size:  2967\n[libx264 @ 0000019c9b3e0280] frame B:222   Avg QP:45.77  size:  1648\n[libx264 @ 0000019c9b3e0280] consecutive B-frames:  1.0%  0.7%  1.0% 97.3%\n[libx264 @ 0000019c9b3e0280] mb I  I16..4:  6.0% 94.0%  0.0%\n[libx264 @ 0000019c9b3e0280] mb P  I16..4:  2.7%  5.2%  0.0%  P16..4:  6.9%  0.2%  0.2%  0.0%  0.0%    skip:84.8%\n[libx264 @ 0000019c9b3e0280] mb B  I16..4:  0.1%  0.2%  0.0%  B16..8:  8.2%  0.2%  0.0%  direct: 1.5%  skip:89.7%  L0:53.1% L1:46.3% BI: 0.7%\n[libx264 @ 0000019c9b3e0280] 8x8 transform intra:74.4% inter:99.7%\n[libx264 @ 0000019c9b3e0280] direct mvs  spatial:95.5% temporal:4.5%\n[libx264 @ 0000019c9b3e0280] coded y,uvDC,uvAC intra: 3.2% 36.8% 11.4% inter: 0.2% 4.6% 0.1%\n[libx264 @ 0000019c9b3e0280] i16 v,h,dc,p: 42% 31%  6% 21%\n[libx264 @ 0000019c9b3e0280] i8 v,h,dc,ddl,ddr,vr,hd,vl,hu: 15%  6% 70%  1%  2%  1%  2%  1%  1%\n[libx264 @ 0000019c9b3e0280] i4 v,h,dc,ddl,ddr,vr,hd,vl,hu:  0% 14% 24%  2% 18%  2% 34%  1%  5%\n[libx264 @ 0000019c9b3e0280] i8c dc,h,v,p: 77% 11%  8%  4%\n[libx264 @ 0000019c9b3e0280] Weighted P-Frames: Y:1.3% UV:1.3%\n[libx264 @ 0000019c9b3e0280] ref P L0: 53.9%  1.2% 22.0% 12.7% 10.0%  0.1%\n[libx264 @ 0000019c9b3e0280] ref B L0: 69.8% 16.9% 10.3%  3.0%\n[libx264 @ 0000019c9b3e0280] ref B L1: 90.9%  9.1%\n[libx264 @ 0000019c9b3e0280] kb/s:968.83\n",
  "seconds": 4.4315505027771,
  "probe_out": {}
}